<?xml version="1.0" encoding="UTF-8" standalone="no"?>
<!DOCTYPE svg PUBLIC "-//W3C//DTD SVG 1.1//EN" "http://www.w3.org/Graphics/SVG/1.1/DTD/svg11.dtd">
<svg width="100%" height="100%" viewBox="0 0 2707 3125" version="1.1" xmlns="http://www.w3.org/2000/svg" xmlns:xlink="http://www.w3.org/1999/xlink" xml:space="preserve" xmlns:serif="http://www.serif.com/" style="fill-rule:evenodd;clip-rule:evenodd;stroke-linejoin:round;stroke-miterlimit:1.41421;">
    <g transform="matrix(4.16667,0,0,4.16667,-730.169,-520.833)">
        <g transform="matrix(1.98413,0,0,1.98413,0,0)">
            <g transform="matrix(1.64582,0,0,1.64582,41.8313,44.1041)">
                <g transform="matrix(0.541396,0,0,0.541396,105.361,-3.85079)">
                    <path d="M41.258,28.319L224.952,134.375L224.952,346.487L41.258,452.543L-142.436,346.487L-142.436,134.375L41.258,28.319Z" style="fill:rgb(24,33,52);"/>
                </g>
                <g transform="matrix(0.504,0,0,0.504,0,-1.38096)">
                    <path d="M280.7,248.76L271.03,274.74L243.69,279.35L226.04,257.98L235.71,232L263.05,227.39L280.7,248.76ZM235.865,232.187L226.279,257.94L243.775,279.123L270.876,274.553L280.461,248.8L262.965,227.617L235.865,232.187Z" style="fill:rgb(24,33,52);"/>
                </g>
                <g transform="matrix(0.504,0,0,0.504,0,-1.38096)">
                    <path d="M281.71,243.06L276.47,272.76L248.12,283.07L225.03,263.68L230.27,233.98L258.62,223.67L281.71,243.06ZM230.588,234.247L225.421,263.538L248.192,282.661L276.152,272.493L281.319,243.202L258.548,224.079L230.588,234.247Z" style="fill:rgb(26,35,53);"/>
                </g>
                <g transform="matrix(0.504,0,0,0.504,0,-1.38096)">
                    <path d="M281.67,236.77L281.9,269.58L253.6,286.18L225.07,269.97L224.84,237.16L253.14,220.56L281.67,236.77ZM225.352,237.451L225.578,269.672L253.596,285.591L281.388,269.289L281.162,237.068L253.144,221.149L225.352,237.451Z" style="fill:rgb(29,37,54);"/>
                </g>
                <g transform="matrix(0.504,0,0,0.504,0,-1.38096)">
                    <path d="M280.38,230.04L287.08,265.1L260.07,288.43L226.36,276.7L219.66,241.64L246.67,218.31L280.38,230.04ZM220.38,241.89L226.937,276.202L259.927,287.681L286.36,264.85L279.803,230.538L246.813,219.059L220.38,241.89Z" style="fill:rgb(31,38,55);"/>
                </g>
                <g transform="matrix(0.504,0,0,0.504,0,-1.38096)">
                    <path d="M277.68,223.09L291.75,259.29L267.43,289.56L229.06,283.65L214.99,247.45L239.31,217.18L277.68,223.09ZM215.926,247.594L229.653,282.912L267.087,288.678L290.814,259.146L277.087,223.828L239.653,218.062L215.926,247.594Z" style="fill:rgb(34,40,56);"/>
                </g>
                <g transform="matrix(0.504,0,0,0.504,0,-1.38096)">
                    <path d="M295.6,252.15L275.54,289.33L233.31,290.55L211.14,254.59L231.2,217.41L273.43,216.19L295.6,252.15ZM231.794,218.373L212.271,254.557L233.847,289.554L274.946,288.367L294.469,252.183L272.893,217.186L231.794,218.373Z" style="fill:rgb(36,43,57);"/>
                </g>
                <g transform="matrix(0.504,0,0,0.504,0,-1.38096)">
                    <path d="M298.31,243.76L284.16,287.49L239.22,297.1L208.43,262.98L222.58,219.25L267.52,209.64L298.31,243.76ZM223.462,220.227L209.717,262.705L239.625,295.848L283.278,286.513L297.023,244.035L267.115,210.892L223.462,220.227Z" style="fill:rgb(39,45,58);"/>
                </g>
                <g transform="matrix(0.504,0,0,0.504,0,-1.38096)">
                    <path d="M299.57,234.25L293.03,283.82L246.83,302.94L207.17,272.49L213.71,222.92L259.91,203.8L299.57,234.25ZM214.91,223.841L208.568,271.912L247.028,301.44L291.83,282.899L298.172,234.828L259.712,205.3L214.91,223.841Z" style="fill:rgb(42,47,59);"/>
                </g>
                <g transform="matrix(0.504,0,0,0.504,0,-1.38096)">
                    <path d="M299.04,223.82L301.79,278.15L256.13,307.69L207.7,282.92L204.95,228.59L250.61,199.05L299.04,223.82ZM206.482,229.374L209.145,281.985L256.043,305.972L300.258,277.366L297.595,224.755L250.697,200.768L206.482,229.374Z" style="fill:rgb(45,50,60);"/>
                </g>
                <g transform="matrix(0.504,0,0,0.504,0,-1.38096)">
                    <path d="M296.42,212.77L310.06,270.35L267,310.95L210.32,293.97L196.68,236.39L239.74,195.79L296.42,212.77ZM198.516,236.94L211.714,292.655L266.558,309.085L308.224,269.8L295.026,214.085L240.182,197.655L198.516,236.94Z" style="fill:rgb(48,52,62);"/>
                </g>
                <g transform="matrix(0.504,0,0,0.504,0,-1.38096)">
                    <path d="M291.45,201.46L317.36,260.39L279.29,312.3L215.29,305.28L189.38,246.35L227.45,194.44L291.45,201.46ZM191.503,246.583L216.554,303.558L278.43,310.345L315.237,260.157L290.186,203.183L228.31,196.395L191.503,246.583Z" style="fill:rgb(51,55,63);"/>
                </g>
                <g transform="matrix(0.504,0,0,0.504,0,-1.38096)">
                    <path d="M323.22,248.29L292.69,311.33L222.84,316.4L183.52,258.45L214.05,195.41L283.9,190.34L323.22,248.29ZM215.373,197.359L185.869,258.279L223.867,314.28L291.367,309.381L320.871,248.461L282.873,192.46L215.373,197.359Z" style="fill:rgb(55,58,65);"/>
                </g>
                <g transform="matrix(0.504,0,0,0.504,0,-1.38096)">
                    <path d="M327.11,234.2L306.84,307.65L233.1,326.82L179.63,272.54L199.9,199.09L273.64,179.92L327.11,234.2ZM201.715,200.933L182.133,271.889L233.788,324.327L305.025,305.807L324.607,234.851L272.952,182.413L201.715,200.933Z" style="fill:rgb(58,62,66);"/>
                </g>
                <g transform="matrix(0.504,0,0,0.504,0,-1.38096)">
                    <path d="M328.5,218.35L321.26,300.93L246.13,335.95L178.24,288.39L185.48,205.81L260.61,170.79L328.5,218.35ZM187.788,207.426L180.794,287.2L246.376,333.143L318.952,299.314L325.946,219.54L260.364,173.597L187.788,207.426Z" style="fill:rgb(62,66,68);"/>
                </g>
                <g transform="matrix(0.504,0,0,0.504,0,-1.38096)">
                    <path d="M326.87,201.12L335.37,290.9L261.87,343.15L179.87,305.62L171.37,215.84L244.87,163.59L326.87,201.12ZM174.163,217.118L182.373,303.84L261.581,340.092L332.577,289.622L324.367,202.9L245.159,166.648L174.163,217.118Z" style="fill:rgb(67,69,70);"/>
                </g>
                <g transform="matrix(0.504,0,0,0.504,0,-1.38096)">
                    <path d="M321.74,183.01L348.49,277.39L280.12,347.76L185,323.74L158.25,229.35L226.61,158.98L321.74,183.01ZM161.474,230.164L187.317,321.355L279.213,344.561L345.266,276.576L319.423,185.395L227.517,162.18L161.474,230.164Z" style="fill:rgb(71,74,72);"/>
                </g>
                <g transform="matrix(0.504,0,0,0.504,0,-1.38096)">
                    <path d="M312.68,164.63L359.87,260.36L300.56,349.1L194.06,342.11L146.87,246.38L206.17,157.64L312.68,164.63ZM150.465,246.616L196.062,339.115L298.967,345.869L356.275,260.124L310.678,167.625L207.763,160.871L150.465,246.616Z" style="fill:rgb(76,79,74);"/>
                </g>
                <g transform="matrix(0.504,0,0,0.504,0,-1.38096)">
                    <path d="M368.7,239.9L322.7,346.52L207.37,359.98L138.04,266.84L184.04,160.22L299.37,146.76L368.7,239.9ZM186.357,163.332L141.894,266.39L208.907,356.418L320.383,343.408L364.846,240.35L297.833,150.322L186.357,163.332Z" style="fill:rgb(82,84,76);"/>
                </g>
                <g transform="matrix(0.504,0,0,0.504,0,-1.38096)">
                    <path d="M374.12,216.27L345.87,339.4L225.12,376.49L132.62,290.47L160.87,167.34L281.62,130.25L374.12,216.27ZM163.939,170.195L136.627,289.239L226.057,372.405L342.801,336.545L370.113,217.501L280.683,134.335L163.939,170.195Z" style="fill:rgb(88,90,79);"/>
                </g>
                <g transform="matrix(0.504,0,0,0.504,0,-1.38096)">
                    <path d="M375.28,189.92L369.27,327.22L247.36,390.67L131.46,316.82L137.47,179.52L259.38,116.07L375.28,189.92ZM141.278,181.946L135.465,314.736L247.557,386.159L365.462,324.794L371.275,192.004L259.183,120.581L141.278,181.946Z" style="fill:rgb(96,97,82);"/>
                </g>
                <g transform="matrix(0.504,0,0,0.504,0,-1.38096)">
                    <path d="M371.33,161.5L391.91,309.59L273.95,401.46L135.41,345.24L114.83,197.15L232.79,105.28L371.33,161.5ZM119.345,198.982L139.254,342.246L273.279,396.634L387.395,307.758L367.486,164.494L233.461,110.106L119.345,198.982Z" style="fill:rgb(104,106,85);"/>
                </g>
                <g transform="matrix(0.504,0,0,0.504,0,-1.38096)">
                    <path d="M361.51,131.87L412.66,286.27L304.52,407.77L145.23,374.87L94.08,220.47L202.22,98.97L361.51,131.87ZM99.248,221.537L148.738,370.928L302.86,402.761L407.492,285.203L358.002,135.812L203.88,103.979L99.248,221.537Z" style="fill:rgb(114,115,89);"/>
                </g>
                <g transform="matrix(0.504,0,0,0.504,0,-1.38096)">
                    <path d="M345.17,102.09L430.28,257.24L338.48,408.51L161.56,404.65L76.46,249.5L168.26,98.23L345.17,102.09ZM82.186,249.625L164.531,399.754L335.725,403.489L424.554,257.115L342.199,106.986L171.015,103.251L82.186,249.625Z" style="fill:rgb(127,128,94);"/>
                </g>
                <g transform="matrix(0.504,0,0,0.504,0,-1.38096)">
                    <path d="M443.42,222.71L374.95,402.63L184.9,433.29L63.32,284.03L131.79,104.11L321.84,73.45L443.42,222.71ZM135.743,108.962L69.499,283.033L187.126,427.441L370.997,397.778L437.241,223.707L319.614,79.299L135.743,108.962Z" style="fill:rgb(143,144,100);"/>
                </g>
                <g transform="matrix(0.504,0,0,0.504,0,-1.38096)">
                    <path d="M450.69,183.18L412.82,389.16L215.5,459.35L56.05,323.56L93.92,117.58L291.24,47.39L450.69,183.18ZM99.212,122.087L62.599,321.23L216.757,452.513L407.528,384.653L444.141,185.51L289.983,54.227L99.212,122.087Z" style="fill:rgb(167,167,109);"/>
                </g>
                <g transform="matrix(0.504,0,0,0.504,0,-1.38096)">
                    <path d="M450.69,139.45L450.69,367.29L253.37,481.22L56.05,367.29L56.05,139.45L253.37,25.52L450.69,139.45ZM63.52,143.763L63.52,362.977L253.37,472.594L443.22,362.977L443.22,143.763L253.37,34.146L63.52,143.763Z" style="fill:rgb(208,209,124);"/>
                </g>
                <g transform="matrix(0.504,0,0,0.504,-66.7709,4.98753)">
                    <path d="M290.495,230.584L278.271,230.584L273.535,264.376L259.647,264.376L264.383,230.584L252.223,230.584L253.695,220.216L291.967,220.216L290.495,230.584Z" style="fill:rgb(111,9,9);fill-rule:nonzero;stroke:rgb(0,9,9);stroke-width:1px;"/>
                    <path d="M354.943,220.216L343.807,260.92C343.21,263.224 341.589,264.376 338.943,264.376L327.295,264.376C326.101,264.376 325.055,263.992 324.159,263.224C323.263,262.456 322.837,261.517 322.879,260.408L323.327,236.792C323.37,235.768 323.477,233.528 323.647,230.072L322.495,230.072C322.197,232.205 321.77,234.381 321.215,236.6L314.879,260.92C314.282,263.224 312.661,264.376 310.015,264.376L298.047,264.376C296.853,264.376 295.818,263.992 294.943,263.224C294.069,262.456 293.674,261.517 293.759,260.408L293.759,220.216L307.391,220.216L305.663,247.544C305.621,248.397 305.535,249.688 305.407,251.416C305.279,253.144 305.194,254.307 305.151,254.904L306.239,254.904C306.794,251.917 307.391,249.272 308.031,246.968L314.175,224.056C314.858,221.496 316.501,220.216 319.103,220.216L328.767,220.216C330.005,220.216 331.029,220.632 331.839,221.464C332.65,222.296 333.055,223.331 333.055,224.568L333.055,247.608C333.055,249.4 333.013,251.832 332.927,254.904L334.079,254.904C334.335,252.387 334.783,249.805 335.423,247.16L341.311,220.216L354.943,220.216Z" style="fill:rgb(111,9,9);fill-rule:nonzero;stroke:rgb(0,9,9);stroke-width:1px;"/>
                    <path d="M390.015,230.584L374.655,230.584C373.546,230.584 372.757,230.776 372.287,231.16C371.818,231.544 371.519,232.205 371.391,233.144L370.815,237.176L386.751,237.176L385.599,246.392L369.535,246.392L368.831,251.512C368.575,253.176 369.365,254.008 371.199,254.008L386.559,254.008L386.303,263.864C382.506,264.376 375.295,264.632 364.671,264.632C361.087,264.632 358.421,263.523 356.671,261.304C354.922,259.085 354.282,256.184 354.751,252.6L357.951,229.752C358.378,226.723 359.573,224.333 361.535,222.584C363.498,220.835 366.079,219.96 369.279,219.96C379.861,219.96 387.285,220.259 391.551,220.856L390.015,230.584Z" style="fill:rgb(111,9,9);fill-rule:nonzero;stroke:rgb(0,9,9);stroke-width:1px;"/>
                    <path d="M427.583,230.584L412.223,230.584C411.114,230.584 410.325,230.776 409.855,231.16C409.386,231.544 409.087,232.205 408.959,233.144L408.383,237.176L424.319,237.176L423.167,246.392L407.103,246.392L406.399,251.512C406.143,253.176 406.933,254.008 408.767,254.008L424.127,254.008L423.871,263.864C420.074,264.376 412.863,264.632 402.239,264.632C398.655,264.632 395.989,263.523 394.239,261.304C392.49,259.085 391.85,256.184 392.319,252.6L395.519,229.752C395.946,226.723 397.141,224.333 399.103,222.584C401.066,220.835 403.647,219.96 406.847,219.96C417.429,219.96 424.853,220.259 429.119,220.856L427.583,230.584Z" style="fill:rgb(111,9,9);fill-rule:nonzero;stroke:rgb(0,9,9);stroke-width:1px;"/>
                    <path d="M474.815,220.216L469.247,259.832C469.034,261.411 468.522,262.563 467.711,263.288C466.901,264.013 465.727,264.376 464.191,264.376L459.583,264.376C458.261,264.376 457.29,264.056 456.671,263.416C456.053,262.776 455.381,261.667 454.655,260.088L447.103,244.92C446.293,243.341 445.546,240.909 444.863,237.624L444.415,237.624C444.501,240.696 444.373,243.427 444.031,245.816L441.279,264.376L428.543,264.376L434.111,224.76C434.325,223.181 434.837,222.029 435.647,221.304C436.458,220.579 437.631,220.216 439.167,220.216L443.775,220.216C444.458,220.216 445.045,220.301 445.535,220.472C446.026,220.643 446.463,220.973 446.847,221.464C447.231,221.955 447.53,222.371 447.743,222.712C447.957,223.053 448.255,223.651 448.639,224.504L456.063,238.904C457.173,241.208 458.069,243.747 458.751,246.52L459.263,246.52C459.05,243.96 459.093,241.464 459.391,239.032L462.079,220.216L474.815,220.216Z" style="fill:rgb(111,9,9);fill-rule:nonzero;stroke:rgb(0,9,9);stroke-width:1px;"/>
                    <path d="M475.263,264.376L481.471,220.216C485.738,219.789 491.69,219.576 499.327,219.576C505.77,219.576 510.421,220.632 513.279,222.744C516.138,224.856 517.226,228.451 516.543,233.528C516.159,236.387 515.231,238.68 513.759,240.408C512.287,242.136 509.887,243.171 506.559,243.512L506.495,243.96C509.994,244.472 511.935,246.84 512.319,251.064L513.983,264.376L499.647,264.376L498.495,251C498.453,249.805 498.261,249.048 497.919,248.728C497.578,248.408 496.917,248.248 495.935,248.248L491.071,248.248L488.831,264.376L475.263,264.376ZM492.479,238.456L497.279,238.456C499.157,238.456 500.458,238.136 501.183,237.496C501.909,236.856 502.421,235.491 502.719,233.4C502.933,231.864 502.794,230.808 502.303,230.232C501.813,229.656 500.778,229.368 499.199,229.368L493.759,229.368L492.479,238.456Z" style="fill:rgb(111,9,9);fill-rule:nonzero;stroke:rgb(0,9,9);stroke-width:1px;"/>
                </g>
            </g>
        </g>
    </g>
</svg>
